<svg width="24" height="24" viewBox="0 0 24 24" fill="none" xmlns="http://www.w3.org/2000/svg">
<g clip-path="url(#clip0_412_1700)">
<path d="M8.98308 8.87988C8.54012 8.87988 8.17969 9.24032 8.17969 9.68327V14.3163C8.2202 15.3808 9.74628 15.3801 9.78642 14.3163V9.68327C9.78642 9.24027 9.42603 8.87988 8.98308 8.87988Z" fill="#888B9A"/>
<path d="M24 11.9999C24 11.2781 23.7264 10.6199 23.2776 10.1225C22.7473 9.54716 22.5331 8.74851 22.7044 7.98512C22.8449 7.33013 22.7527 6.62314 22.3918 5.99817C22.0309 5.37319 21.4648 4.93989 20.8276 4.73382C20.0807 4.50055 19.4958 3.91561 19.2624 3.16896C19.0567 2.53156 18.6233 1.96542 17.9982 1.60452C17.3732 1.24357 16.6662 1.15158 16.0113 1.29159C15.2479 1.46325 14.449 1.2492 13.8735 0.719031C12.871 -0.235385 11.122 -0.234729 10.1193 0.718656C9.54395 1.2492 8.74502 1.46325 7.98162 1.29201C7.32678 1.15158 6.61984 1.24357 5.99477 1.60452C5.3697 1.96542 4.93635 2.53156 4.73023 3.16896C4.49715 3.91561 3.91235 4.50055 3.16556 4.73382C2.5282 4.93989 1.96207 5.37319 1.60117 5.99817C1.24031 6.62314 1.14808 7.33018 1.28819 7.98512C1.45975 8.74856 1.2458 9.54758 0.715725 10.123C-0.23888 11.1256 -0.238176 12.8744 0.715443 13.8772C1.24571 14.4522 1.45989 15.2512 1.28861 16.0146C1.14808 16.6696 1.24031 17.3766 1.60117 18.0016C1.96207 18.6266 2.5282 19.0599 3.16542 19.266C3.91231 19.4993 4.49724 20.0838 4.73065 20.8308C4.93635 21.4682 5.3697 22.0344 5.99477 22.3953C6.61984 22.7562 7.32678 22.8482 7.98172 22.7082C8.74511 22.5366 9.54404 22.7506 10.1196 23.2808C11.1221 24.2351 12.8712 24.2347 13.8737 23.2808C14.4491 22.7506 15.248 22.5366 16.0114 22.7078C16.6662 22.8482 17.3732 22.7562 17.9982 22.3953C18.6233 22.0344 19.0567 21.4682 19.2628 20.8308C19.4959 20.0838 20.0807 19.4993 20.8274 19.2656C21.4648 19.06 22.0309 18.6266 22.3918 18.0016C22.7527 17.3767 22.8449 16.6697 22.7048 16.0147C22.5333 15.2512 22.7472 14.4522 23.2773 13.8769C23.7264 13.3798 24 12.7217 24 11.9999ZM11.1931 14.3164C11.0817 17.2449 6.88349 17.2427 6.77307 14.3164V9.68333C6.88457 6.75471 11.0827 6.75692 11.1931 9.68333V14.3164ZM12.4231 8.23311C12.4577 7.30092 13.7955 7.30162 13.8298 8.23311V8.98647C13.7952 9.91866 12.4574 9.91796 12.4231 8.98647V8.23311ZM16.8432 15.7666C16.8086 16.6987 15.4708 16.698 15.4365 15.7666V15.0132C15.4711 14.0811 16.8089 14.0818 16.8432 15.0132V15.7666ZM16.7929 8.49433L13.7795 16.0278C13.6352 16.3884 13.2259 16.5638 12.8653 16.4196C12.5046 16.2753 12.3292 15.866 12.4735 15.5053L15.4868 7.97189C15.6311 7.61127 16.0404 7.43586 16.4011 7.58009C16.7617 7.72437 16.9372 8.13366 16.7929 8.49433Z" fill="#888B9A"/>
</g>
<defs>
<clipPath id="clip0_412_1700">
<rect width="24" height="24" fill="white"/>
</clipPath>
</defs>
</svg>
